<svg xmlns="http://www.w3.org/2000/svg" viewBox="0 0 1920 1080" preserveAspectRatio="xMidYMid slice">
  <defs>
    <linearGradient id="sky" x1="0" y1="0" x2="0" y2="1">
      <stop offset="0" stop-color="#060a1c"/>
      <stop offset="0.7" stop-color="#101c38"/>
      <stop offset="1" stop-color="#1a2c4a"/>
    </linearGradient>
    <linearGradient id="a1" x1="0" y1="1" x2="0.3" y2="0">
      <stop offset="0" stop-color="#38e8b0" stop-opacity="0"/>
      <stop offset="0.5" stop-color="#38e8b0" stop-opacity="0.4"/>
      <stop offset="1" stop-color="#7c6cf0" stop-opacity="0.12"/>
    </linearGradient>
    <linearGradient id="a2" x1="0" y1="1" x2="-0.2" y2="0">
      <stop offset="0" stop-color="#4adfc8" stop-opacity="0"/>
      <stop offset="0.5" stop-color="#4adfc8" stop-opacity="0.3"/>
      <stop offset="1" stop-color="#a06cf0" stop-opacity="0.1"/>
    </linearGradient>
    <linearGradient id="ground" x1="0" y1="0" x2="0" y2="1">
      <stop offset="0" stop-color="#0d1526"/><stop offset="1" stop-color="#070b16"/>
    </linearGradient>
    <filter id="blurA"><feGaussianBlur stdDeviation="26"/></filter>
  </defs>
  <rect width="1920" height="1080" fill="url(#sky)"/>
  <path d="M200 900 C 380 620, 460 420, 560 140 L 760 180 C 660 460, 600 660, 480 920 Z" fill="url(#a1)" filter="url(#blurA)"/>
  <path d="M700 880 C 860 600, 980 380, 1120 120 L 1330 170 C 1190 440, 1090 660, 960 910 Z" fill="url(#a2)" filter="url(#blurA)"/>
  <path d="M1250 900 C 1380 640, 1480 430, 1600 190 L 1780 250 C 1660 490, 1560 690, 1450 930 Z" fill="url(#a1)" filter="url(#blurA)"/>
  <g fill="#dfe7ff">
    <circle cx="160" cy="140" r="1.8" opacity="0.8"/><circle cx="420" cy="80" r="1.4" opacity="0.6"/>
    <circle cx="900" cy="90" r="2" opacity="0.8"/><circle cx="1180" cy="240" r="1.4" opacity="0.55"/>
    <circle cx="1420" cy="90" r="1.8" opacity="0.75"/><circle cx="1700" cy="150" r="1.5" opacity="0.6"/>
    <circle cx="1850" cy="330" r="1.6" opacity="0.6"/><circle cx="620" cy="250" r="1.5" opacity="0.6"/>
    <circle cx="1020" cy="330" r="1.3" opacity="0.5"/><circle cx="260" cy="380" r="1.5" opacity="0.55"/>
    <circle cx="1560" cy="420" r="1.3" opacity="0.5"/><circle cx="760" cy="60" r="1.5" opacity="0.7"/>
  </g>
  <path d="M0 930 L300 850 L560 910 L860 830 L1150 900 L1440 840 L1720 900 L1920 860 L1920 1080 L0 1080 Z" fill="url(#ground)"/>
  <g fill="#04070f">
    <path d="M340 900 L360 830 L380 900 Z"/><path d="M375 900 L398 810 L420 900 Z"/>
    <path d="M1500 890 L1520 820 L1540 890 Z"/><path d="M1535 890 L1558 805 L1580 890 Z"/>
  </g>
</svg>
