<svg xmlns="http://www.w3.org/2000/svg" viewBox="0 0 32 40"><ellipse cx="16" cy="37" rx="8" ry="2.5" fill="#000" fill-opacity="0.18"/><rect x="11" y="28" width="4" height="8" rx="1.5" fill="#3f485c"/><rect x="17" y="28" width="4" height="8" rx="1.5" fill="#3f485c"/><rect x="8" y="14" width="16" height="16" rx="6" fill="#8d99ae"/><rect x="11" y="19" width="10" height="7" rx="2" fill="#9b5de5"/><rect x="9" y="4" width="14" height="11" rx="5" fill="#a2afc8"/><rect x="11.5" y="7.5" width="9" height="4.5" rx="2" fill="#2b2338"/><circle cx="14" cy="9.7" r="1.1" fill="#7ce0d3"/><circle cx="18" cy="9.7" r="1.1" fill="#7ce0d3"/><line x1="16" y1="4" x2="16" y2="1.5" stroke="#8d99ae" stroke-width="1.4"/><circle cx="16" cy="1.4" r="1.4" fill="#9b5de5"/><rect x="21" y="19" width="8" height="10" rx="1" fill="#f4ede4"/><path d="M22.5 21.5 h5 M22.5 24 h5 M22.5 26.5 h3.5" stroke="#2b2338" stroke-width="1"/></svg>
