<svg xmlns="http://www.w3.org/2000/svg" viewBox="0 0 128 128"><ellipse cx="64" cy="80" rx="47" ry="24" fill="#000" fill-opacity="0.13"/><polygon points="64.0,74.0 68.0,72.0 68.0,40.0 64.0,42.0" fill="#5f6876"/><polygon points="64.0,74.0 60.0,72.0 60.0,40.0 64.0,42.0" fill="#7c8699"/><polygon points="64.0,42.0 68.0,40.0 64.0,38.0 60.0,40.0" fill="#9dabc2"/><polygon points="64.0,88.0 80.0,80.0 80.0,72.0 64.0,80.0" fill="#3d4555"/><polygon points="64.0,88.0 48.0,80.0 48.0,72.0 64.0,80.0" fill="#50596e"/><polygon points="64.0,80.0 80.0,72.0 64.0,64.0 48.0,72.0" fill="#65728d"/><polygon points="62.0,97.0 72.0,92.0 72.0,86.0 62.0,91.0" fill="#5d4226"/><polygon points="62.0,97.0 54.0,93.0 54.0,87.0 62.0,91.0" fill="#795631"/><polygon points="62.0,91.0 72.0,86.0 64.0,82.0 54.0,87.0" fill="#9a6d3e"/><path d="M64 46 l10 -7 l-2 9 z" fill="#8d99ae"/><path d="M76 38 a10 10 0 0 1 6 8 M79 33 a15 15 0 0 1 9 12" stroke="#ffd166" stroke-width="2" fill="none"/></svg>
