<svg xmlns="http://www.w3.org/2000/svg" viewBox="0 0 128 128"><ellipse cx="64" cy="80" rx="47" ry="24" fill="#000" fill-opacity="0.13"/><polygon points="62.0,77.0 80.0,68.0 80.0,36.0 62.0,45.0" fill="#5d4226"/><polygon points="62.0,77.0 46.0,69.0 46.0,37.0 62.0,45.0" fill="#795631"/><polygon points="62.0,45.0 80.0,36.0 64.0,28.0 46.0,37.0" fill="#9a6d3e"/><polygon points="40.0,88.0 58.0,79.0 58.0,39.0 40.0,48.0" fill="#5d4226"/><polygon points="40.0,88.0 24.0,80.0 24.0,40.0 40.0,48.0" fill="#795631"/><polygon points="40.0,48.0 58.0,39.0 42.0,31.0 24.0,40.0" fill="#9a6d3e"/><polygon points="68.0,98.0 96.0,84.0 96.0,76.0 68.0,90.0" fill="#5f6876"/><polygon points="68.0,98.0 56.0,92.0 56.0,84.0 68.0,90.0" fill="#7c8699"/><polygon points="68.0,90.0 96.0,76.0 84.0,70.0 56.0,84.0" fill="#9dabc2"/><polygon points="42.0,75.0 46.0,73.0 46.0,65.0 42.0,67.0" fill="#ef6461"/><polygon points="47.2,72.4 51.2,70.4 51.2,62.4 47.2,64.4" fill="#8ac926"/><polygon points="52.4,69.8 56.4,67.8 56.4,59.8 52.4,61.8" fill="#4ea8de"/><polygon points="42.0,63.0 46.0,61.0 46.0,53.0 42.0,55.0" fill="#d9a441"/><polygon points="47.2,60.4 51.2,58.4 51.2,50.4 47.2,52.4" fill="#9b5de5"/><polygon points="52.4,57.8 56.4,55.8 56.4,47.8 52.4,49.8" fill="#7ce0d3"/><polygon points="64.0,66.0 68.0,64.0 68.0,57.0 64.0,59.0" fill="#f4ede4"/><polygon points="69.2,63.4 73.2,61.4 73.2,54.4 69.2,56.4" fill="#d9a441"/><polygon points="74.4,60.8 78.4,58.8 78.4,51.8 74.4,53.8" fill="#f4ede4"/></svg>
