<svg xmlns="http://www.w3.org/2000/svg" viewBox="0 0 128 128"><ellipse cx="64" cy="80" rx="47" ry="24" fill="#000" fill-opacity="0.13"/><polygon points="38.0,85.0 74.0,67.0 74.0,35.0 38.0,53.0" fill="#5d4226"/><polygon points="38.0,85.0 32.0,82.0 32.0,50.0 38.0,53.0" fill="#795631"/><polygon points="38.0,53.0 74.0,35.0 68.0,32.0 32.0,50.0" fill="#9a6d3e"/><polygon points="68.0,90.0 84.0,82.0 84.0,74.0 68.0,82.0" fill="#7d5d39"/><polygon points="68.0,90.0 56.0,84.0 56.0,76.0 68.0,82.0" fill="#a27949"/><polygon points="68.0,82.0 84.0,74.0 72.0,68.0 56.0,76.0" fill="#cf9a5e"/><polygon points="41.0,77.5 71.0,62.5 71.0,40.5 41.0,55.5" fill="#f4ede4"/><polygon points="43.0,73.5 47.0,71.5 47.0,67.9 43.0,69.9" fill="#cfc9c1"/><polygon points="48.6,70.7 52.6,68.7 52.6,65.1 48.6,67.1" fill="#cfc9c1"/><polygon points="54.2,67.9 58.2,65.9 58.2,62.3 54.2,64.3" fill="#cfc9c1"/><polygon points="59.8,65.1 63.8,63.1 63.8,59.5 59.8,61.5" fill="#cfc9c1"/><polygon points="65.4,62.3 69.4,60.3 69.4,56.7 65.4,58.7" fill="#cfc9c1"/><polygon points="43.0,67.9 47.0,65.9 47.0,62.3 43.0,64.3" fill="#cfc9c1"/><polygon points="48.6,65.1 52.6,63.1 52.6,59.5 48.6,61.5" fill="#cfc9c1"/><polygon points="54.2,62.3 58.2,60.3 58.2,56.7 54.2,58.7" fill="#ef6461"/><polygon points="59.8,59.5 63.8,57.5 63.8,53.9 59.8,55.9" fill="#cfc9c1"/><polygon points="65.4,56.7 69.4,54.7 69.4,51.1 65.4,53.1" fill="#cfc9c1"/><polygon points="43.0,62.3 47.0,60.3 47.0,56.7 43.0,58.7" fill="#cfc9c1"/><polygon points="48.6,59.5 52.6,57.5 52.6,53.9 48.6,55.9" fill="#cfc9c1"/><polygon points="54.2,56.7 58.2,54.7 58.2,51.1 54.2,53.1" fill="#cfc9c1"/><polygon points="59.8,53.9 63.8,51.9 63.8,48.3 59.8,50.3" fill="#cfc9c1"/><polygon points="65.4,51.1 69.4,49.1 69.4,45.5 65.4,47.5" fill="#cfc9c1"/><polygon points="41.0,59.1 71.0,44.1 71.0,40.5 41.0,55.5" fill="#ef6461"/></svg>
