<svg xmlns="http://www.w3.org/2000/svg" viewBox="0 0 128 128"><ellipse cx="64" cy="80" rx="47" ry="24" fill="#000" fill-opacity="0.13"/><polygon points="54.0,89.0 82.0,75.0 82.0,51.0 54.0,65.0" fill="#7d5d39"/><polygon points="54.0,89.0 38.0,81.0 38.0,57.0 54.0,65.0" fill="#a27949"/><polygon points="54.0,65.0 82.0,51.0 66.0,43.0 38.0,57.0" fill="#cf9a5e"/><polygon points="57.0,84.5 63.0,81.5 63.0,77.5 57.0,80.5" fill="#8a6238"/><polygon points="65.4,80.3 71.4,77.3 71.4,73.3 65.4,76.3" fill="#8a6238"/><polygon points="73.8,76.1 79.8,73.1 79.8,69.1 73.8,72.1" fill="#8a6238"/><polygon points="57.0,77.3 63.0,74.3 63.0,70.3 57.0,73.3" fill="#8a6238"/><polygon points="65.4,73.1 71.4,70.1 71.4,66.1 65.4,69.1" fill="#8a6238"/><polygon points="73.8,68.9 79.8,65.9 79.8,61.9 73.8,64.9" fill="#8a6238"/><polygon points="57.0,70.1 63.0,67.1 63.0,63.1 57.0,66.1" fill="#8a6238"/><polygon points="65.4,65.9 71.4,62.9 71.4,58.9 65.4,61.9" fill="#8a6238"/><polygon points="73.8,61.7 79.8,58.7 79.8,54.7 73.8,57.7" fill="#8a6238"/><polygon points="60.0,61.0 76.0,53.0 76.0,48.0 60.0,56.0" fill="#f4ede4"/></svg>
