<svg xmlns="http://www.w3.org/2000/svg" viewBox="0 0 128 128"><ellipse cx="64" cy="80" rx="47" ry="24" fill="#000" fill-opacity="0.13"/><polygon points="38.0,85.0 74.0,67.0 74.0,43.0 38.0,61.0" fill="#2a303e"/><polygon points="38.0,85.0 30.0,81.0 30.0,57.0 38.0,61.0" fill="#373f50"/><polygon points="38.0,61.0 74.0,43.0 66.0,39.0 30.0,57.0" fill="#465067"/><polygon points="60.0,94.0 92.0,78.0 92.0,68.0 60.0,84.0" fill="#3d4555"/><polygon points="60.0,94.0 48.0,88.0 48.0,78.0 60.0,84.0" fill="#50596e"/><polygon points="60.0,84.0 92.0,68.0 80.0,62.0 48.0,78.0" fill="#65728d"/><polygon points="41.0,72.5 51.0,67.5 51.0,58.5 41.0,63.5" fill="#7ce0d3"/><polygon points="53.0,66.5 63.0,61.5 63.0,52.5 53.0,57.5" fill="#8ac926"/><polygon points="65.0,60.5 73.0,56.5 73.0,47.5 65.0,51.5" fill="#d9a441"/><polygon points="44.0,80.0 68.0,68.0 68.0,62.0 44.0,74.0" fill="#4a867e"/></svg>
