<svg xmlns="http://www.w3.org/2000/svg" viewBox="0 0 128 128"><ellipse cx="64" cy="80" rx="47" ry="24" fill="#000" fill-opacity="0.13"/><polygon points="86.0,81.0 96.0,76.0 96.0,68.0 86.0,73.0" fill="#5d4226"/><polygon points="86.0,81.0 78.0,77.0 78.0,69.0 86.0,73.0" fill="#795631"/><polygon points="86.0,73.0 96.0,68.0 88.0,64.0 78.0,69.0" fill="#9a6d3e"/><polygon points="36.0,82.0 76.0,62.0 76.0,30.0 36.0,50.0" fill="#3d4555"/><polygon points="36.0,82.0 24.0,76.0 24.0,44.0 36.0,50.0" fill="#50596e"/><polygon points="36.0,50.0 76.0,30.0 64.0,24.0 24.0,44.0" fill="#65728d"/><polygon points="64.0,100.0 104.0,80.0 104.0,76.0 64.0,96.0" fill="#705433"/><polygon points="64.0,100.0 24.0,80.0 24.0,76.0 64.0,96.0" fill="#926d42"/><polygon points="64.0,96.0 104.0,76.0 64.0,56.0 24.0,76.0" fill="#b98a54"/><polygon points="40.0,78.0 45.2,75.4 45.2,53.4 40.0,56.0" fill="#8d99ae"/><polygon points="46.8,74.6 52.0,72.0 52.0,50.0 46.8,52.6" fill="#8792a7"/><polygon points="53.6,71.2 58.8,68.6 58.8,46.6 53.6,49.2" fill="#818ca0"/><polygon points="60.4,67.8 65.6,65.2 65.6,43.2 60.4,45.8" fill="#7c8699"/><polygon points="67.2,64.4 72.4,61.8 72.4,39.8 67.2,42.4" fill="#768092"/></svg>
