<svg xmlns="http://www.w3.org/2000/svg" viewBox="0 0 128 128"><ellipse cx="64" cy="80" rx="47" ry="24" fill="#000" fill-opacity="0.13"/><polygon points="68.0,68.0 74.0,65.0 74.0,47.0 68.0,50.0" fill="#5f6876"/><polygon points="68.0,68.0 62.0,65.0 62.0,47.0 68.0,50.0" fill="#7c8699"/><polygon points="68.0,50.0 74.0,47.0 68.0,44.0 62.0,47.0" fill="#9dabc2"/><polygon points="56.0,92.0 88.0,76.0 88.0,66.0 56.0,82.0" fill="#7d5d39"/><polygon points="56.0,92.0 40.0,84.0 40.0,74.0 56.0,82.0" fill="#a27949"/><polygon points="56.0,82.0 88.0,66.0 72.0,58.0 40.0,74.0" fill="#cf9a5e"/><polygon points="58.0,81.0 86.0,67.0 72.0,48.0 44.0,62.0" fill="#4ea8de"/><polygon points="59.6,77.4 81.6,66.4 71.0,52.5 49.0,63.5" fill="#69e2ff"/><path d="M56 70 h10 M56 74 h14 M56 78 h7" stroke="#f4ede4" stroke-width="1.2"/><circle cx="60" cy="56" r="3" fill="#ffd166"/></svg>
