<svg xmlns="http://www.w3.org/2000/svg" viewBox="0 0 128 128"><ellipse cx="64" cy="80" rx="47" ry="24" fill="#000" fill-opacity="0.13"/><polygon points="72.0,74.0 82.0,69.0 82.0,61.0 72.0,66.0" fill="#5d4226"/><polygon points="72.0,74.0 62.0,69.0 62.0,61.0 72.0,66.0" fill="#795631"/><polygon points="72.0,66.0 82.0,61.0 72.0,56.0 62.0,61.0" fill="#9a6d3e"/><polygon points="60.0,96.0 96.0,78.0 96.0,64.0 60.0,82.0" fill="#7d5d39"/><polygon points="60.0,96.0 46.0,89.0 46.0,75.0 60.0,82.0" fill="#a27949"/><polygon points="60.0,82.0 96.0,64.0 82.0,57.0 46.0,75.0" fill="#cf9a5e"/><path d="M58 60 a7 7 0 0 1 12 0" stroke="#4ea8de" stroke-width="3" fill="none"/><circle cx="58" cy="61" r="2.5" fill="#4ea8de"/><circle cx="70" cy="61" r="2.5" fill="#4ea8de"/><polygon points="66.0,79.0 76.0,74.0 76.0,67.0 66.0,72.0" fill="#7ce0d3"/></svg>
