<svg xmlns="http://www.w3.org/2000/svg" viewBox="0 0 128 128"><ellipse cx="64" cy="80" rx="47" ry="24" fill="#000" fill-opacity="0.13"/><polygon points="90.0,83.0 102.0,77.0 102.0,37.0 90.0,43.0" fill="#3d4555"/><polygon points="90.0,83.0 58.0,67.0 58.0,27.0 90.0,43.0" fill="#50596e"/><polygon points="90.0,43.0 102.0,37.0 70.0,21.0 58.0,27.0" fill="#65728d"/><polygon points="58.0,99.0 70.0,93.0 70.0,53.0 58.0,59.0" fill="#3d4555"/><polygon points="58.0,99.0 26.0,83.0 26.0,43.0 58.0,59.0" fill="#50596e"/><polygon points="58.0,59.0 70.0,53.0 38.0,37.0 26.0,43.0" fill="#65728d"/><polygon points="58.0,59.0 102.0,37.0 102.0,29.0 58.0,51.0" fill="#2a303e"/><polygon points="58.0,59.0 26.0,43.0 26.0,35.0 58.0,51.0" fill="#373f50"/><polygon points="58.0,51.0 102.0,29.0 70.0,13.0 26.0,35.0" fill="#465067"/><polygon points="62.0,89.0 82.0,79.0 82.0,51.0 62.0,61.0" fill="#ad8334"/><circle cx="64" cy="42" r="5" fill="#ffd166"/><polygon points="65.0,75.5 79.0,68.5 79.0,65.5 65.0,72.5" fill="#2b2338"/></svg>
