<svg xmlns="http://www.w3.org/2000/svg" viewBox="0 0 128 128"><ellipse cx="64" cy="80" rx="47" ry="24" fill="#000" fill-opacity="0.13"/><polygon points="44.0,82.0 68.0,70.0 68.0,38.0 44.0,50.0" fill="#3d4555"/><polygon points="44.0,82.0 36.0,78.0 36.0,46.0 44.0,50.0" fill="#50596e"/><polygon points="44.0,50.0 68.0,38.0 60.0,34.0 36.0,46.0" fill="#65728d"/><polygon points="58.0,95.0 94.0,77.0 94.0,63.0 58.0,81.0" fill="#7d5d39"/><polygon points="58.0,95.0 42.0,87.0 42.0,73.0 58.0,81.0" fill="#a27949"/><polygon points="58.0,81.0 94.0,63.0 78.0,55.0 42.0,73.0" fill="#cf9a5e"/><circle cx="64" cy="52" r="7" fill="none" stroke="#d9a441" stroke-width="4"/><rect x="61" y="58" width="6" height="14" fill="#d9a441"/><rect x="64" y="66" width="7" height="3" fill="#d9a441"/></svg>
