<svg xmlns="http://www.w3.org/2000/svg" viewBox="0 0 128 128"><ellipse cx="64" cy="80" rx="47" ry="24" fill="#000" fill-opacity="0.13"/><polygon points="84.0,86.0 96.0,80.0 96.0,74.0 84.0,80.0" fill="#5f6876"/><polygon points="84.0,86.0 74.0,81.0 74.0,75.0 84.0,80.0" fill="#7c8699"/><polygon points="84.0,80.0 96.0,74.0 86.0,69.0 74.0,75.0" fill="#9dabc2"/><polygon points="42.0,87.0 78.0,69.0 78.0,41.0 42.0,59.0" fill="#7d5d39"/><polygon points="42.0,87.0 32.0,82.0 32.0,54.0 42.0,59.0" fill="#a27949"/><polygon points="42.0,59.0 78.0,41.0 68.0,36.0 32.0,54.0" fill="#cf9a5e"/><polygon points="45.6,81.2 52.0,78.0 52.0,72.0 45.6,75.2" fill="#785936"/><polygon points="53.6,77.2 60.0,74.0 60.0,68.0 53.6,71.2" fill="#785936"/><polygon points="61.6,73.2 68.0,70.0 68.0,64.0 61.6,67.2" fill="#785936"/><polygon points="69.6,69.2 76.0,66.0 76.0,60.0 69.6,63.2" fill="#785936"/><polygon points="45.6,73.6 52.0,70.4 52.0,64.4 45.6,67.6" fill="#785936"/><polygon points="53.6,69.6 60.0,66.4 60.0,60.4 53.6,63.6" fill="#785936"/><polygon points="61.6,65.6 68.0,62.4 68.0,56.4 61.6,59.6" fill="#785936"/><polygon points="69.6,61.6 76.0,58.4 76.0,52.4 69.6,55.6" fill="#785936"/><polygon points="45.6,66.0 52.0,62.8 52.0,56.8 45.6,60.0" fill="#785936"/><polygon points="53.6,62.0 60.0,58.8 60.0,52.8 53.6,56.0" fill="#785936"/><polygon points="61.6,58.0 68.0,54.8 68.0,48.8 61.6,52.0" fill="#785936"/><polygon points="69.6,54.0 76.0,50.8 76.0,44.8 69.6,48.0" fill="#785936"/><polygon points="54.0,69.0 60.4,65.8 60.4,59.8 54.0,63.0" fill="#f4ede4"/></svg>
