<svg xmlns="http://www.w3.org/2000/svg" viewBox="0 0 128 128"><ellipse cx="64" cy="80" rx="47" ry="24" fill="#000" fill-opacity="0.13"/><polygon points="64.0,100.0 104.0,80.0 104.0,76.0 64.0,96.0" fill="#3d4555"/><polygon points="64.0,100.0 24.0,80.0 24.0,76.0 64.0,96.0" fill="#50596e"/><polygon points="64.0,96.0 104.0,76.0 64.0,56.0 24.0,76.0" fill="#65728d"/><polygon points="66.0,95.0 72.0,92.0 72.0,96.0 66.0,99.0" fill="#d9a441"/><polygon points="76.0,90.0 82.0,87.0 82.0,91.0 76.0,94.0" fill="#d9a441"/><polygon points="86.0,85.0 92.0,82.0 92.0,86.0 86.0,89.0" fill="#d9a441"/><polygon points="96.0,80.0 102.0,77.0 102.0,81.0 96.0,84.0" fill="#d9a441"/><circle cx="64" cy="80" r="7" fill="none" stroke="#ffd166" stroke-width="2" stroke-dasharray="4 3"/></svg>
