<svg xmlns="http://www.w3.org/2000/svg" viewBox="0 0 128 128"><ellipse cx="64" cy="80" rx="47" ry="24" fill="#000" fill-opacity="0.13"/><polygon points="64.0,68.0 72.0,64.0 72.0,44.0 64.0,48.0" fill="#5f6876"/><polygon points="64.0,68.0 56.0,64.0 56.0,44.0 64.0,48.0" fill="#7c8699"/><polygon points="64.0,48.0 72.0,44.0 64.0,40.0 56.0,44.0" fill="#9dabc2"/><polygon points="56.0,48.0 72.0,40.0 72.0,34.0 56.0,42.0" fill="#5f6876"/><polygon points="56.0,48.0 48.0,44.0 48.0,38.0 56.0,42.0" fill="#7c8699"/><polygon points="56.0,42.0 72.0,34.0 64.0,30.0 48.0,38.0" fill="#9dabc2"/><polygon points="64.0,90.0 84.0,80.0 84.0,64.0 64.0,74.0" fill="#3d4555"/><polygon points="64.0,90.0 44.0,80.0 44.0,64.0 64.0,74.0" fill="#50596e"/><polygon points="64.0,74.0 84.0,64.0 64.0,54.0 44.0,64.0" fill="#65728d"/><circle cx="57" cy="47" r="2.5" fill="#7ce0d3"/></svg>
