<svg xmlns="http://www.w3.org/2000/svg" viewBox="0 0 128 128"><ellipse cx="64" cy="80" rx="47" ry="24" fill="#000" fill-opacity="0.13"/><polygon points="38.0,85.0 74.0,67.0 74.0,39.0 38.0,57.0" fill="#7d5d39"/><polygon points="38.0,85.0 32.0,82.0 32.0,54.0 38.0,57.0" fill="#a27949"/><polygon points="38.0,57.0 74.0,39.0 68.0,36.0 32.0,54.0" fill="#cf9a5e"/><polygon points="70.0,89.0 84.0,82.0 84.0,74.0 70.0,81.0" fill="#5d4226"/><polygon points="70.0,89.0 60.0,84.0 60.0,76.0 70.0,81.0" fill="#795631"/><polygon points="70.0,81.0 84.0,74.0 74.0,69.0 60.0,76.0" fill="#9a6d3e"/><polygon points="41.0,78.5 71.0,63.5 71.0,44.5 41.0,59.5" fill="#e7ac69"/><polygon points="44.0,74.0 50.0,71.0 50.0,65.0 44.0,68.0" fill="#f4ede4"/><polygon points="52.8,69.6 58.8,66.6 58.8,60.6 52.8,63.6" fill="#7ce0d3"/><polygon points="61.6,65.2 67.6,62.2 67.6,56.2 61.6,59.2" fill="#d9a441"/><polygon points="44.0,65.2 50.0,62.2 50.0,56.2 44.0,59.2" fill="#f4ede4"/><polygon points="52.8,60.8 58.8,57.8 58.8,51.8 52.8,54.8" fill="#8ac926"/></svg>
