<svg xmlns="http://www.w3.org/2000/svg" viewBox="0 0 128 128"><ellipse cx="64" cy="80" rx="47" ry="24" fill="#000" fill-opacity="0.13"/><polygon points="52.0,80.0 64.0,74.0 64.0,58.0 52.0,64.0" fill="#5f6876"/><polygon points="52.0,80.0 40.0,74.0 40.0,58.0 52.0,64.0" fill="#7c8699"/><polygon points="52.0,64.0 64.0,58.0 52.0,52.0 40.0,58.0" fill="#9dabc2"/><polygon points="60.0,94.0 92.0,78.0 92.0,66.0 60.0,82.0" fill="#3d4555"/><polygon points="60.0,94.0 44.0,86.0 44.0,74.0 60.0,82.0" fill="#50596e"/><polygon points="60.0,82.0 92.0,66.0 76.0,58.0 44.0,74.0" fill="#65728d"/><polygon points="63.0,89.5 89.0,76.5 89.0,68.5 63.0,81.5" fill="#4b6e14"/><circle cx="64" cy="88" r="0.1" fill="none"/><ellipse cx="61" cy="53" rx="9" ry="4.5" fill="none" stroke="#8ac926" stroke-width="2"/><path d="M61 53 l7 -3" stroke="#ffd166" stroke-width="2"/></svg>
