<svg xmlns="http://www.w3.org/2000/svg" viewBox="0 0 128 128"><ellipse cx="64" cy="80" rx="47" ry="24" fill="#000" fill-opacity="0.13"/><polygon points="100.0,84.0 108.0,80.0 108.0,62.0 100.0,66.0" fill="#5f6876"/><polygon points="100.0,84.0 92.0,80.0 92.0,62.0 100.0,66.0" fill="#7c8699"/><polygon points="100.0,66.0 108.0,62.0 100.0,58.0 92.0,62.0" fill="#9dabc2"/><polygon points="64.0,48.0 76.0,42.0 76.0,34.0 64.0,40.0" fill="#2a303e"/><polygon points="64.0,48.0 52.0,42.0 52.0,34.0 64.0,40.0" fill="#373f50"/><polygon points="64.0,40.0 76.0,34.0 64.0,28.0 52.0,34.0" fill="#465067"/><polygon points="34.0,87.0 42.0,83.0 42.0,59.0 34.0,63.0" fill="#5f6876"/><polygon points="34.0,87.0 26.0,83.0 26.0,59.0 34.0,63.0" fill="#7c8699"/><polygon points="34.0,63.0 42.0,59.0 34.0,55.0 26.0,59.0" fill="#9dabc2"/><polygon points="64.0,86.0 88.0,74.0 88.0,42.0 64.0,54.0" fill="#3d4555"/><polygon points="64.0,86.0 40.0,74.0 40.0,42.0 64.0,54.0" fill="#50596e"/><polygon points="64.0,54.0 88.0,42.0 64.0,30.0 40.0,42.0" fill="#65728d"/><polygon points="64.0,100.0 104.0,80.0 104.0,74.0 64.0,94.0" fill="#2a303e"/><polygon points="64.0,100.0 24.0,80.0 24.0,74.0 64.0,94.0" fill="#373f50"/><polygon points="64.0,94.0 104.0,74.0 64.0,54.0 24.0,74.0" fill="#465067"/><ellipse cx="64" cy="66" rx="13" ry="6.5" fill="none" stroke="#ffd166" stroke-width="3" class="glow"/><polygon points="68.0,74.0 84.0,66.0 84.0,54.0 68.0,62.0" fill="#ffd166"/></svg>
