<svg xmlns="http://www.w3.org/2000/svg" viewBox="0 0 128 128"><ellipse cx="64" cy="80" rx="47" ry="24" fill="#000" fill-opacity="0.13"/><polygon points="62.0,73.0 72.0,68.0 72.0,60.0 62.0,65.0" fill="#936f2c"/><polygon points="62.0,73.0 54.0,69.0 54.0,61.0 62.0,65.0" fill="#be9039"/><polygon points="62.0,65.0 72.0,60.0 64.0,56.0 54.0,61.0" fill="#f3b748"/><polygon points="58.0,91.0 86.0,77.0 86.0,65.0 58.0,79.0" fill="#7d5d39"/><polygon points="58.0,91.0 44.0,84.0 44.0,72.0 58.0,79.0" fill="#a27949"/><polygon points="58.0,79.0 86.0,65.0 72.0,58.0 44.0,72.0" fill="#cf9a5e"/><polygon points="78.0,67.0 84.0,64.0 84.0,60.0 78.0,63.0" fill="#f4ede4"/></svg>
