<svg xmlns="http://www.w3.org/2000/svg" viewBox="0 0 128 128"><ellipse cx="64" cy="80" rx="47" ry="24" fill="#000" fill-opacity="0.13"/><polygon points="42.0,87.0 78.0,69.0 78.0,39.0 42.0,57.0" fill="#2a303e"/><polygon points="42.0,87.0 30.0,81.0 30.0,51.0 42.0,57.0" fill="#373f50"/><polygon points="42.0,57.0 78.0,39.0 66.0,33.0 30.0,51.0" fill="#465067"/><polygon points="68.0,94.0 92.0,82.0 92.0,72.0 68.0,84.0" fill="#7d5d39"/><polygon points="68.0,94.0 58.0,89.0 58.0,79.0 68.0,84.0" fill="#a27949"/><polygon points="68.0,84.0 92.0,72.0 82.0,67.0 58.0,79.0" fill="#cf9a5e"/><circle cx="48.0" cy="56.0" r="1.3" fill="#d9a441"/><circle cx="53.4" cy="56.0" r="1.3" fill="#d9a441"/><circle cx="58.8" cy="56.0" r="1.3" fill="#d9a441"/><circle cx="64.2" cy="56.0" r="1.3" fill="#d9a441"/><circle cx="69.6" cy="56.0" r="1.3" fill="#d9a441"/><circle cx="75.0" cy="56.0" r="1.3" fill="#d9a441"/><circle cx="48.0" cy="62.0" r="1.3" fill="#d9a441"/><circle cx="53.4" cy="62.0" r="1.3" fill="#d9a441"/><circle cx="58.8" cy="62.0" r="1.3" fill="#d9a441"/><circle cx="64.2" cy="62.0" r="1.3" fill="#d9a441"/><circle cx="69.6" cy="62.0" r="1.3" fill="#d9a441"/><circle cx="75.0" cy="62.0" r="1.3" fill="#d9a441"/><circle cx="48.0" cy="68.0" r="1.3" fill="#d9a441"/><circle cx="53.4" cy="68.0" r="1.3" fill="#d9a441"/><circle cx="58.8" cy="68.0" r="1.3" fill="#d9a441"/><circle cx="64.2" cy="68.0" r="1.3" fill="#d9a441"/><circle cx="69.6" cy="68.0" r="1.3" fill="#d9a441"/><circle cx="75.0" cy="68.0" r="1.3" fill="#d9a441"/><path d="M50 62 q8 10 20 4 M56 56 q10 12 16 12" stroke="#ef6461" stroke-width="1.8" fill="none"/></svg>
