<svg xmlns="http://www.w3.org/2000/svg" viewBox="0 0 128 128"><ellipse cx="64" cy="80" rx="47" ry="24" fill="#000" fill-opacity="0.13"/><polygon points="32.0,84.0 72.0,64.0 72.0,34.0 32.0,54.0" fill="#5d4226"/><polygon points="32.0,84.0 26.0,81.0 26.0,51.0 32.0,54.0" fill="#795631"/><polygon points="32.0,54.0 72.0,34.0 66.0,31.0 26.0,51.0" fill="#9a6d3e"/><polygon points="92.0,86.0 104.0,80.0 104.0,70.0 92.0,76.0" fill="#5d4226"/><polygon points="92.0,86.0 82.0,81.0 82.0,71.0 92.0,76.0" fill="#795631"/><polygon points="92.0,76.0 104.0,70.0 94.0,65.0 82.0,71.0" fill="#9a6d3e"/><polygon points="60.0,94.0 92.0,78.0 92.0,66.0 60.0,82.0" fill="#7d5d39"/><polygon points="60.0,94.0 44.0,86.0 44.0,74.0 60.0,82.0" fill="#a27949"/><polygon points="60.0,82.0 92.0,66.0 76.0,58.0 44.0,74.0" fill="#cf9a5e"/><polygon points="38.0,73.0 50.0,67.0 50.0,57.0 38.0,63.0" fill="#d9a441"/><polygon points="54.0,61.0 62.0,57.0 62.0,49.0 54.0,53.0" fill="#ef6461"/></svg>
