<svg xmlns="http://www.w3.org/2000/svg" viewBox="0 0 128 128"><ellipse cx="64" cy="80" rx="47" ry="24" fill="#000" fill-opacity="0.13"/><polygon points="36.0,86.0 76.0,66.0 76.0,42.0 36.0,62.0" fill="#3d4555"/><polygon points="36.0,86.0 28.0,82.0 28.0,58.0 36.0,62.0" fill="#50596e"/><polygon points="36.0,62.0 76.0,42.0 68.0,38.0 28.0,58.0" fill="#65728d"/><polygon points="64.0,76.0 70.0,73.0 70.0,63.0 64.0,66.0" fill="#5f6876"/><polygon points="64.0,76.0 58.0,73.0 58.0,63.0 64.0,66.0" fill="#7c8699"/><polygon points="64.0,66.0 70.0,63.0 64.0,60.0 58.0,63.0" fill="#9dabc2"/><polygon points="60.0,96.0 96.0,78.0 96.0,66.0 60.0,84.0" fill="#7d5d39"/><polygon points="60.0,96.0 44.0,88.0 44.0,76.0 60.0,84.0" fill="#a27949"/><polygon points="60.0,84.0 96.0,66.0 80.0,58.0 44.0,76.0" fill="#cf9a5e"/><path d="M60 62 l8 -8 l6 3" stroke="#8d99ae" stroke-width="3" fill="none"/><path d="M74 55 l3 3 m0 -3 l-3 3" stroke="#ffd166" stroke-width="2"/><polygon points="40.0,78.0 50.0,73.0 50.0,65.0 40.0,70.0" fill="#7ce0d3"/></svg>
