<svg xmlns="http://www.w3.org/2000/svg" viewBox="0 0 128 128"><ellipse cx="64" cy="80" rx="47" ry="24" fill="#000" fill-opacity="0.13"/><polygon points="88.0,80.0 98.0,75.0 98.0,31.0 88.0,36.0" fill="#2a303e"/><polygon points="88.0,80.0 64.0,68.0 64.0,24.0 88.0,36.0" fill="#373f50"/><polygon points="88.0,36.0 98.0,31.0 74.0,19.0 64.0,24.0" fill="#465067"/><polygon points="54.0,97.0 64.0,92.0 64.0,48.0 54.0,53.0" fill="#2a303e"/><polygon points="54.0,97.0 30.0,85.0 30.0,41.0 54.0,53.0" fill="#373f50"/><polygon points="54.0,53.0 64.0,48.0 40.0,36.0 30.0,41.0" fill="#465067"/><polygon points="54.0,53.0 98.0,31.0 98.0,25.0 54.0,47.0" fill="#3d4555"/><polygon points="54.0,53.0 30.0,41.0 30.0,35.0 54.0,47.0" fill="#50596e"/><polygon points="54.0,47.0 98.0,25.0 74.0,13.0 30.0,35.0" fill="#65728d"/><circle cx="64" cy="62" r="12" fill="#4ea8de" fill-opacity="0.9"/><path d="M52 62 h24 M64 50 v24 M55 54 q9 6 18 0 M55 70 q9 -6 18 0" stroke="#f4ede4" stroke-width="1.6" fill="none"/></svg>
